<?xml version="1.0" standalone="no"?>
<!DOCTYPE svg PUBLIC "-//W3C//DTD SVG 20010904//EN"
 "http://www.w3.org/TR/2001/REC-SVG-20010904/DTD/svg10.dtd">
<svg version="1.0" xmlns="http://www.w3.org/2000/svg"
 width="852.000000pt" height="480.000000pt" viewBox="0 0 852.000000 480.000000"
 preserveAspectRatio="xMidYMid meet">

<g transform="translate(0.000000,480.000000) scale(0.100000,-0.100000)"
fill="#000000" stroke="none">
<path d="M0 2400 l0 -2400 4260 0 4260 0 0 2400 0 2400 -140 0 -140 0 -3 -162
-3 -163 -2 163 -2 162 -1787 -4 c-984 -2 -1795 -3 -1803 -3 -8 0 -597 1 -1307
3 -711 2 -1293 2 -1293 -1 0 -3 7 -16 15 -28 21 -33 0 -71 -41 -75 -55 -5 -84
49 -47 90 16 17 -15 18 -975 18 l-992 0 0 -2400z m1893 2153 c64 -67 67 -158
7 -225 -23 -25 -93 -38 -135 -25 -81 24 -123 122 -85 197 29 58 65 79 131 80
47 0 59 -4 82 -27z m2255 -45 c2 -19 -2 -28 -18 -33 -37 -12 -64 27 -38 53 21
21 53 10 56 -20z m3199 -180 c-3 -7 -5 -2 -5 12 0 14 2 19 5 13 2 -7 2 -19 0
-25z m-7203 -73 c30 -46 12 -90 -42 -101 -57 -11 -92 53 -56 104 22 32 76 30
98 -3z m3709 -12 c-18 -2 -48 -2 -65 0 -18 2 -4 4 32 4 36 0 50 -2 33 -4z
m355 -29 c-3 -14 -5 -12 -10 9 -3 19 -2 25 4 19 6 -6 8 -18 6 -28z m3142 26
c0 -6 -25 -9 -57 -8 l-58 1 55 7 c30 4 56 7 58 8 1 1 2 -2 2 -8z m-5242 -27
c-43 -2 -113 -2 -155 0 -43 1 -8 3 77 3 85 0 120 -2 78 -3z m4659 -15 c-3 -8
-6 -5 -6 6 -1 11 2 17 5 13 3 -3 4 -12 1 -19z m-2334 -75 c-40 -2 -107 -2
-150 0 -43 1 -10 3 72 3 83 0 118 -2 78 -3z m2324 -265 c-2 -13 -4 -3 -4 22 0
25 2 35 4 23 2 -13 2 -33 0 -45z m-1100 -65 c-2 -21 -4 -6 -4 32 0 39 2 55 4
38 2 -18 2 -50 0 -70z m271 -30 c-21 -2 -55 -2 -75 0 -21 2 -4 4 37 4 41 0 58
-2 38 -4z m-2471 -70 c-2 -16 -4 -5 -4 22 0 28 2 40 4 28 2 -13 2 -35 0 -50z
m2693 -68 l0 -135 -52 2 -53 2 48 3 47 4 0 130 c0 71 2 129 5 129 3 0 5 -61 5
-135z m-4022 76 c-2 -20 -9 -26 -28 -26 -20 0 -25 5 -27 25 -2 32 24 55 44 38
8 -6 13 -23 11 -37z m2399 -83 c-2 -18 -4 -6 -4 27 0 33 2 48 4 33 2 -15 2
-42 0 -60z m-2390 -80 c29 -32 36 -80 16 -109 -23 -33 -33 -39 -71 -39 -45 0
-82 38 -82 83 0 73 91 115 137 65z m1271 -15 c-16 -4 -18 -22 -20 -171 l-2
-167 -3 160 c-2 87 -1 165 1 172 3 7 13 12 23 12 17 -1 17 -2 1 -6z m3209
-265 c-1 -40 -3 -8 -3 72 0 80 2 112 3 73 2 -40 2 -106 0 -145z m451 85 c-272
-3 -297 -5 -301 -21 -4 -13 -5 -11 -6 6 l-1 22 303 -2 302 -3 -297 -2z m915 0
c-57 -2 -149 -2 -205 0 -57 1 -11 3 102 3 113 0 159 -2 103 -3z m-3314 -70
c-2 -24 -2 -25 -6 -5 -4 20 -10 22 -63 22 l-59 0 -4 -32 c-4 -32 -4 -32 -5 5
l-2 37 70 0 70 0 -1 -27z m314 20 c-13 -2 -35 -2 -50 0 -16 2 -5 4 22 4 28 0
40 -2 28 -4z m2374 -135 c-2 -24 -4 -5 -4 42 0 47 2 66 4 43 2 -24 2 -62 0
-85z m-740 -30 c-3 -8 -6 -5 -6 6 -1 11 2 17 5 13 3 -3 4 -12 1 -19z m101 -5
c-15 -2 -42 -2 -60 0 -18 2 -6 4 27 4 33 0 48 -2 33 -4z m39 -115 c-2 -24 -4
-5 -4 42 0 47 2 66 4 43 2 -24 2 -62 0 -85z m-1860 -320 c-1 -73 -3 -16 -3
127 0 143 2 203 3 133 2 -70 2 -187 0 -260z m-1822 289 c23 -32 18 -74 -10
-103 -34 -34 -80 -30 -81 6 -2 58 -15 90 -37 91 -15 0 -17 2 -7 6 8 3 17 9 20
13 25 33 87 26 115 -13z m3175 -137 l-375 -5 -2 -440 c-1 -242 -4 -441 -8
-442 -3 -2 -102 -3 -220 -3 l-215 0 1 23 c1 16 2 18 6 5 4 -16 23 -18 214 -18
l209 0 0 440 0 440 -210 0 -210 0 -3 -302 -2 -303 -3 308 -2 307 598 -2 c565
-3 577 -3 222 -8z m507 -22 c-3 -7 -5 -2 -5 12 0 14 2 19 5 13 2 -7 2 -19 0
-25z m3 -497 l0 -479 -74 -4 c-41 -2 -72 0 -69 5 2 4 33 7 69 7 l64 0 0 475
c0 261 2 475 5 475 3 0 5 -216 5 -479z m-4307 412 c-29 -2 -78 -2 -110 0 -32
2 -8 3 52 3 61 0 87 -1 58 -3z m5644 -235 c-1 -40 -3 -10 -3 67 0 77 1 110 3
73 2 -37 2 -100 0 -140z m-5870 76 c-3 -3 -12 -4 -19 -1 -8 3 -5 6 6 6 11 1
17 -2 13 -5z m-709 -287 l667 -2 -679 -3 -678 -2 6 23 c3 12 7 78 8 147 l2
125 3 -142 4 -143 667 -3z m5709 71 c-2 -13 -4 -3 -4 22 0 25 2 35 4 23 2 -13
2 -33 0 -45z m691 55 c-49 -2 -127 -2 -175 0 -49 1 -9 3 87 3 96 0 136 -2 88
-3z m139 1 c-3 -3 -12 -4 -19 -1 -8 3 -5 6 6 6 11 1 17 -2 13 -5z m-3687 -434
l0 -260 -352 2 -353 3 348 2 347 3 0 255 c0 140 2 255 5 255 3 0 5 -117 5
-260z m283 253 c-23 -2 -64 -2 -90 0 -26 2 -7 3 42 3 50 0 71 -1 48 -3z m370
-506 l122 -3 -127 -2 -128 -2 2 263 3 262 2 -257 3 -257 123 -4z m-4173 409
c0 -7 14 -16 30 -20 64 -12 104 -99 74 -158 -17 -33 -45 -68 -55 -68 -4 0 -12
14 -19 30 -16 40 -32 38 -30 -2 1 -18 1 -64 -1 -103 l-2 -70 -7 65 c-4 36 -9
110 -10 165 -1 67 -5 92 -10 75 l-8 -25 -1 27 c-1 14 -7 29 -13 32 -7 3 -2 3
12 -1 23 -5 24 -5 10 12 -11 14 -12 19 -2 22 6 3 12 11 12 19 0 8 5 14 10 14
6 0 10 -6 10 -14z m5133 -183 c-18 -2 -48 -2 -65 0 -18 2 -4 4 32 4 36 0 50
-2 33 -4z m395 0 c-10 -2 -28 -2 -40 0 -13 2 -5 4 17 4 22 1 32 -1 23 -4z
m535 -120 c-18 -2 -48 -2 -65 0 -18 2 -4 4 32 4 36 0 50 -2 33 -4z m-1306 -79
c-3 -3 -12 -4 -19 -1 -8 3 -5 6 6 6 11 1 17 -2 13 -5z m1619 -251 c-4 -10 -65
-13 -298 -11 l-293 3 293 2 292 3 2 133 2 132 3 -124 c2 -69 1 -131 -1 -138z
m-1339 -110 c-1 -65 -3 -12 -3 117 0 129 2 182 3 118 2 -65 2 -171 0 -235z
m-1189 330 c-60 -2 -156 -2 -215 0 -60 1 -11 3 107 3 118 0 167 -2 108 -3z
m-2988 -40 c0 -7 -335 -7 -730 0 -85 1 44 4 288 5 243 1 442 -1 442 -5z m-37
-90 c-18 -2 -48 -2 -65 0 -18 2 -4 4 32 4 36 0 50 -2 33 -4z m810 0 c-7 -2
-19 -2 -25 0 -7 3 -2 5 12 5 14 0 19 -2 13 -5z m-1050 -10 c-7 -2 -19 -2 -25
0 -7 3 -2 5 12 5 14 0 19 -2 13 -5z m969 -43 l-4 -50 -106 2 -107 2 103 3 102
4 0 38 c0 30 6 51 14 51 1 0 -1 -22 -2 -50z m4127 -1054 c-9 -8 -10 -6 -5 7 3
10 7 231 8 490 l3 472 2 -479 c2 -354 0 -483 -8 -490z m-1471 877 c-10 -2 -26
-2 -35 0 -10 3 -2 5 17 5 19 0 27 -2 18 -5z m829 -260 c-2 -32 -3 -8 -3 52 0
61 1 87 3 58 2 -29 2 -78 0 -110z m-3784 80 c-45 -2 -122 -2 -170 0 -48 1 -11
3 82 3 94 0 133 -2 88 -3z m3784 -505 c-1 -68 -3 -13 -3 122 0 135 2 190 3
123 2 -68 2 -178 0 -245z m0 -160 c-3 -7 -5 -2 -5 12 0 14 2 19 5 13 2 -7 2
-19 0 -25z m476 -25 c-84 -2 -222 -2 -305 0 -84 1 -16 3 152 3 168 0 236 -2
153 -3z m177 -113 c0 -5 -4 -10 -10 -10 -5 0 -10 5 -10 10 0 6 5 10 10 10 6 0
10 -4 10 -10z m-3 -42 c-3 -8 -6 -5 -6 6 -1 11 2 17 5 13 3 -3 4 -12 1 -19z
m-220 -34 c-3 -3 -12 -4 -19 -1 -8 3 -5 6 6 6 11 1 17 -2 13 -5z m281 -1 c-16
-2 -40 -2 -55 0 -16 2 -3 4 27 4 30 0 43 -2 28 -4z m-6133 -273 l-180 -6 205
-1 c124 -1 195 2 180 8 l-25 8 24 -2 c14 -1 26 -8 29 -15 3 -9 -43 -12 -207
-12 -190 0 -233 5 -214 24 3 3 88 5 187 4 l181 -2 -180 -6z"/>
</g>
</svg>
